<svg xmlns="http://www.w3.org/2000/svg" version="1.1" id="Layer_1" x="0px" y="0px" xml:space="preserve" viewBox="222.96 113.99 558.06 800.02">
<path fill="#869AA5" opacity="1.000000" stroke="none" d=" M264.000000,436.918854   C262.682037,420.558746 261.353363,404.672363 260.052612,388.783630   C259.662842,384.022522 259.308502,379.257629 259.012421,374.489868   C258.317078,363.293030 257.724396,352.089539 256.971008,340.896759   C256.651337,336.147491 256.032654,331.418365 255.568146,326.859650   C249.756668,325.930511 243.705673,325.486206 237.959183,323.922699   C229.153473,321.526855 223.017456,312.772217 223.009186,303.671509   C222.984085,276.006104 222.885544,248.339981 223.049728,220.675537   C223.128220,207.448059 232.916367,198.917755 245.427429,198.047775   C249.722992,197.749100 254.056808,198.000320 258.912384,198.000320   C259.625671,192.665359 260.455444,187.553635 260.968719,182.410339   C262.387054,168.198242 263.029724,153.874176 265.192627,139.780640   C267.354645,125.692871 278.449066,113.992081 294.602997,113.993401   C433.263428,114.004753 571.923828,113.982559 710.584290,114.026352   C724.656616,114.030792 737.650513,126.339401 739.051331,141.947571   C740.105591,153.694427 741.685486,165.393188 742.915955,177.125458   C743.631836,183.950592 744.120117,190.799591 744.657349,197.018951   C752.221741,198.059021 759.162231,198.378296 765.749268,200.071854   C775.000244,202.450333 780.988831,211.123947 780.994568,220.569931   C781.011169,247.735367 781.036072,274.900879 780.985901,302.066223   C780.957764,317.291840 770.646973,324.834015 757.699219,325.961578   C754.733459,326.219849 751.726074,325.999603 748.548218,325.999603   C748.021179,330.878693 747.352966,335.558380 747.039856,340.261688   C746.272339,351.788696 745.769775,363.333557 744.975708,374.858521   C743.730835,392.927307 742.367432,410.988190 740.988892,429.047394   C740.049927,441.347382 738.960144,453.635773 738.008118,465.934814   C736.635315,483.667358 735.347778,501.406525 733.983093,519.139709   C733.023743,531.605103 731.962097,544.062683 731.007996,556.528442   C729.638123,574.425598 728.343506,592.328552 726.980225,610.226196   C726.017761,622.861450 725.063599,635.498047 723.980347,648.123230   C722.729980,662.694702 721.210022,677.243896 720.055847,691.822449   C719.170532,703.005005 718.836853,714.231079 717.958862,725.414368   C716.801147,740.160522 715.326294,754.881531 714.040527,769.617920   C713.610779,774.543030 713.321411,779.481018 713.004761,784.415405   C711.991028,800.215820 711.064819,816.022156 709.969055,831.816833   C709.080505,844.624451 708.289307,857.450256 706.907776,870.208740   C705.760254,880.806519 706.350220,891.927612 699.021118,901.050293   C692.734314,908.875793 685.017029,913.966248 674.741028,913.970398   C559.579529,914.017029 444.418030,914.045410 329.256653,913.945251   C313.936493,913.931946 300.922760,901.604858 299.131226,886.788879   C297.532288,873.565979 297.024048,860.212219 295.992371,846.919495   C294.680634,830.018311 293.321228,813.120728 291.992249,796.220825   C290.986206,783.426941 289.973633,770.633423 289.003479,757.836792   C287.646515,739.938721 286.341888,722.036560 284.985107,704.138428   C284.014679,691.337158 282.983124,678.540466 282.000824,665.740112   C280.652618,648.171753 279.338593,630.600708 277.984436,613.032837   C277.010773,600.401489 275.972534,587.775146 275.004364,575.143372   C273.645630,557.415466 272.331146,539.684204 270.986511,521.955139   C269.990631,508.824402 269.042236,495.689545 267.953766,482.566406   C266.704315,467.502472 265.323669,452.449432 264.000000,436.918854  M612.500000,775.767517   C633.164490,775.766785 653.829651,775.685913 674.493042,775.835449   C678.444336,775.864014 680.065857,774.713257 680.354248,770.576965   C681.720764,750.978699 683.433716,731.404907 684.903259,711.813416   C687.070251,682.922729 689.073120,654.019775 691.261047,625.130798   C693.738098,592.424133 696.403076,559.731812 698.874451,527.024780   C701.383484,493.818634 703.737000,460.600739 706.203247,427.391296   C706.740479,420.157013 706.827759,420.155640 699.356140,420.155548   C567.703369,420.153961 436.050629,420.153717 304.397888,420.156281   C296.622955,420.156433 296.639038,420.349579 297.294525,427.998535   C298.645020,443.757263 299.799988,459.533173 300.974365,475.306549   C302.791687,499.715210 304.519470,524.130554 306.356567,548.537781   C308.181152,572.778198 310.135590,597.008850 311.956268,621.249512   C313.789459,645.656982 315.487122,670.074524 317.319794,694.482056   C319.152374,718.888489 321.153748,743.282471 322.920929,767.693542   C323.503693,775.743713 323.275513,775.767090 331.529572,775.767212   C424.853058,775.768372 518.176514,775.767212 612.500000,775.767517  M744.054932,291.773254   C747.621155,291.518921 747.048584,288.799561 747.053589,286.562256   C747.089722,270.395935 746.905212,254.226685 747.177429,238.064896   C747.259705,233.174454 745.631104,231.906448 740.893616,231.909637   C581.563171,232.016953 422.232635,232.013412 262.902130,231.922501   C258.468079,231.919968 256.752380,233.038544 256.827942,237.768951   C257.083374,253.764572 257.095398,269.769714 256.823059,285.764801   C256.739319,290.682159 258.446259,291.931091 263.146912,291.927917   C423.143982,291.819885 583.141113,291.829071 744.054932,291.773254  M390.500000,387.001556   C494.148773,387.001556 597.797546,387.001617 701.446350,387.000977   C703.112732,387.000977 704.785156,386.899719 706.444031,387.009338   C709.005493,387.178650 709.884399,386.044159 710.064758,383.523743   C711.324768,365.913849 712.600830,348.303284 714.141968,330.716644   C714.534485,326.237823 713.167297,325.030518 708.733704,325.033813   C570.924194,325.136719 433.114655,325.135895 295.305145,325.036224   C290.934418,325.033051 289.440613,326.132996 289.847931,330.673828   C291.335938,347.261993 292.794464,363.864746 293.618500,380.493958   C293.897888,386.132904 295.840027,387.165039 301.016266,387.121582   C330.509094,386.874084 360.005096,387.001556 390.500000,387.001556  M508.500000,808.878479   C448.109070,808.878479 387.718140,808.878479 327.077026,808.878479   C327.077026,811.620239 326.955933,813.441101 327.095581,815.241638   C328.602173,834.666565 330.105896,854.091858 331.708862,873.508972   C332.309631,880.786255 332.426758,880.780029 339.808990,880.780151   C398.952606,880.781128 458.096252,880.780762 517.239868,880.780701   C566.720581,880.780640 616.201416,880.729919 665.681763,880.866211   C670.140869,880.878540 672.054688,880.069153 672.325745,875.020203   C673.137939,859.893799 674.650940,844.805908 675.817627,829.697327   C676.336914,822.973450 676.681885,816.236145 677.145447,808.878296   C620.706543,808.878296 565.103271,808.878296 508.500000,808.878479  M440.500031,147.213608   C411.671326,147.213501 382.842621,147.213074 354.013916,147.213455   C337.016632,147.213684 320.018738,147.290421 303.022552,147.154861   C299.479034,147.126587 297.944824,148.129303 297.823547,151.887070   C297.668274,156.700531 296.833466,161.489594 296.357330,166.295685   C295.311035,176.856964 294.306152,187.422348 293.243866,198.404938   C432.651917,198.404938 571.511414,198.404938 710.459106,198.404938   C710.576965,197.389999 710.774353,196.729553 710.709412,196.096008   C709.299927,182.345444 707.934326,168.589691 706.399475,154.852921   C705.544434,147.200378 705.413269,147.213577 697.459229,147.213562   C612.139526,147.213409 526.819763,147.213730 440.500031,147.213608  z"/>
<path fill="#475E71" opacity="1.000000" stroke="none" d=" M612.000000,775.767090   C518.176514,775.767212 424.853058,775.768372 331.529572,775.767212   C323.275513,775.767090 323.503693,775.743713 322.920929,767.693542   C321.153748,743.282471 319.152374,718.888489 317.319794,694.482056   C315.487122,670.074524 313.789459,645.656982 311.956268,621.249512   C310.135590,597.008850 308.181152,572.778198 306.356567,548.537781   C304.519470,524.130554 302.791687,499.715210 300.974365,475.306549   C299.799988,459.533173 298.645020,443.757263 297.294525,427.998535   C296.639038,420.349579 296.622955,420.156433 304.397888,420.156281   C436.050629,420.153717 567.703369,420.153961 699.356140,420.155548   C706.827759,420.155640 706.740479,420.157013 706.203247,427.391296   C703.737000,460.600739 701.383484,493.818634 698.874451,527.024780   C696.403076,559.731812 693.738098,592.424133 691.261047,625.130798   C689.073120,654.019775 687.070251,682.922729 684.903259,711.813416   C683.433716,731.404907 681.720764,750.978699 680.354248,770.576965   C680.065857,774.713257 678.444336,775.864014 674.493042,775.835449   C653.829651,775.685913 633.164490,775.766785 612.000000,775.767090  M386.754517,571.120972   C385.751343,571.566772 384.748199,572.012512 383.969757,572.358459   C383.969757,562.671448 384.150177,553.229187 383.825867,543.804321   C383.756439,541.786499 382.327515,538.836609 380.697998,538.066895   C377.824219,536.709717 375.020142,538.445312 374.068481,541.552002   C373.257690,544.198914 372.854431,547.074646 372.854675,549.849182   C372.856445,569.839355 373.016602,589.829529 373.102722,609.819824   C373.121368,614.150452 372.863434,618.489685 373.061279,622.809937   C373.253998,627.019409 376.450836,628.838135 380.357819,627.839844   C382.667847,627.249695 385.383179,626.966064 387.625519,627.589905   C408.741058,633.463928 426.683197,620.559265 427.323944,598.762390   C428.070831,573.353943 406.211884,559.953552 386.754517,571.120972  M458.325897,568.676880   C439.837860,574.379456 430.530273,594.349976 436.896790,614.432251   C439.729950,623.369141 445.794617,628.876526 454.993561,628.934448   C462.201050,628.979858 469.421875,626.906250 476.636780,625.774109   C477.970673,625.791748 479.222717,627.689880 480.949280,628.353699   C482.977661,629.133667 485.901062,629.678589 487.522888,628.742676   C488.760040,628.028687 489.062622,624.805664 488.884491,622.777466   C488.703430,620.715942 487.416412,618.753967 486.627441,616.743042   C482.068420,605.122803 483.318970,593.158142 485.007019,581.310181   C485.797119,575.764954 485.456940,573.499390 480.382141,570.906250   C473.610657,567.446045 466.497467,566.587524 458.325897,568.676880  M497.992218,586.532471   C498.353241,593.791626 500.442139,596.800049 507.215179,599.014954   C510.997406,600.251770 515.019592,600.775391 518.764771,602.098450   C521.676880,603.127380 524.773804,604.407593 526.998840,606.440430   C531.171204,610.252563 529.902832,615.229309 524.511230,616.727417   C517.069458,618.795105 509.689819,618.815918 503.002533,614.153259   C500.118988,612.142700 497.344940,612.012085 494.973969,614.654846   C492.641266,617.254822 492.895294,620.317383 495.025452,622.847595   C496.365906,624.439880 498.243408,625.861694 500.170929,626.630066   C509.396606,630.307312 518.875916,631.275024 528.475403,628.149719   C542.349854,623.632751 546.081055,606.514038 534.803711,597.191956   C530.625549,593.738220 524.914612,592.034363 519.741821,589.927612   C516.636169,588.662781 513.219604,588.161194 509.281708,587.146179   C514.598083,578.493774 523.009460,578.134155 530.571655,575.662903   C531.019531,576.812622 531.362793,577.398865 531.473511,578.026184   C532.187378,582.069580 534.585876,583.882446 538.567993,582.993225   C542.799316,582.048340 543.187134,578.713440 542.750916,575.161133   C542.467407,572.852661 542.002869,570.565735 541.598633,568.272827   C540.619202,562.716736 537.904175,560.693237 532.468384,562.290588   C524.820679,564.537964 517.206787,566.988708 509.777954,569.867188   C502.744537,572.592468 498.350250,577.742798 497.992218,586.532471  M599.469177,627.184692   C610.945374,632.505249 621.536133,630.185364 631.467163,623.265747   C634.218750,621.348511 635.177002,618.456543 633.278809,615.382568   C631.452148,612.424377 628.788696,612.367615 625.880554,613.868469   C623.220825,615.241211 620.599915,616.752014 617.810364,617.797546   C611.674866,620.097290 605.906189,618.947266 600.980103,614.782593   C596.001343,610.573364 594.827698,604.871033 596.725769,598.886230   C598.218811,594.178406 600.160522,589.490112 602.681213,585.256470   C607.993347,576.334473 615.229126,575.009705 623.655029,581.041016   C626.584045,583.137634 629.414551,584.191772 631.914673,580.906555   C634.181519,577.927917 633.378662,574.927551 630.786804,572.415405   C622.567139,564.448486 605.510498,564.286682 598.248718,573.058411   C593.580017,578.697998 589.606384,585.429321 587.209290,592.327454   C581.939941,607.491333 586.393616,619.321167 599.469177,627.184692  M558.031799,580.515381   C557.830627,583.999084 557.472595,587.482178 557.458130,590.966675   C557.416748,600.933289 557.336914,610.907227 557.715332,620.861450   C557.786926,622.745239 559.507019,625.296265 561.181213,626.170227   C562.657776,626.941040 565.696228,626.453613 567.009766,625.321045   C568.352478,624.163330 568.929993,621.559570 568.990540,619.563049   C569.408142,605.782532 569.605164,591.995239 569.865784,578.209961   C569.890930,576.881042 569.965210,575.542114 569.844360,574.223633   C569.527527,570.766663 567.748535,568.667358 564.112549,568.621765   C560.461426,568.575928 558.648865,570.687683 558.247620,574.102844   C558.035156,575.911255 558.111816,577.753540 558.031799,580.515381  M570.616150,543.750671   C567.246155,541.124268 563.513489,540.914307 561.000122,544.256470   C559.635010,546.071777 559.327148,549.585571 560.047546,551.855530   C561.148254,555.323792 564.631165,555.834351 567.945923,555.056946   C572.461914,553.997620 573.730408,549.526428 570.616150,543.750671  z"/>
<path fill="#475E71" opacity="1.000000" stroke="none" d=" M743.596558,291.797302   C583.141113,291.829071 423.143982,291.819885 263.146912,291.927917   C258.446259,291.931091 256.739319,290.682159 256.823059,285.764801   C257.095398,269.769714 257.083374,253.764572 256.827942,237.768951   C256.752380,233.038544 258.468079,231.919968 262.902130,231.922501   C422.232635,232.013412 581.563171,232.016953 740.893616,231.909637   C745.631104,231.906448 747.259705,233.174454 747.177429,238.064896   C746.905212,254.226685 747.089722,270.395935 747.053589,286.562256   C747.048584,288.799561 747.621155,291.518921 743.596558,291.797302  z"/>
<path fill="#EEEEF0" opacity="1.000000" stroke="none" d=" M390.000000,387.001556   C360.005096,387.001556 330.509094,386.874084 301.016266,387.121582   C295.840027,387.165039 293.897888,386.132904 293.618500,380.493958   C292.794464,363.864746 291.335938,347.261993 289.847931,330.673828   C289.440613,326.132996 290.934418,325.033051 295.305145,325.036224   C433.114655,325.135895 570.924194,325.136719 708.733704,325.033813   C713.167297,325.030518 714.534485,326.237823 714.141968,330.716644   C712.600830,348.303284 711.324768,365.913849 710.064758,383.523743   C709.884399,386.044159 709.005493,387.178650 706.444031,387.009338   C704.785156,386.899719 703.112732,387.000977 701.446350,387.000977   C597.797546,387.001617 494.148773,387.001556 390.000000,387.001556  z"/>
<path fill="#EDEEF0" opacity="1.000000" stroke="none" d=" M509.000000,808.878418   C565.103271,808.878296 620.706543,808.878296 677.145447,808.878296   C676.681885,816.236145 676.336914,822.973450 675.817627,829.697327   C674.650940,844.805908 673.137939,859.893799 672.325745,875.020203   C672.054688,880.069153 670.140869,880.878540 665.681763,880.866211   C616.201416,880.729919 566.720581,880.780640 517.239868,880.780701   C458.096252,880.780762 398.952606,880.781128 339.808990,880.780151   C332.426758,880.780029 332.309631,880.786255 331.708862,873.508972   C330.105896,854.091858 328.602173,834.666565 327.095581,815.241638   C326.955933,813.441101 327.077026,811.620239 327.077026,808.878479   C387.718140,808.878479 448.109070,808.878479 509.000000,808.878418  z"/>
<path fill="#EDEDEF" opacity="1.000000" stroke="none" d=" M441.000061,147.213776   C526.819763,147.213730 612.139526,147.213409 697.459229,147.213562   C705.413269,147.213577 705.544434,147.200378 706.399475,154.852921   C707.934326,168.589691 709.299927,182.345444 710.709412,196.096008   C710.774353,196.729553 710.576965,197.389999 710.459106,198.404938   C571.511414,198.404938 432.651917,198.404938 293.243866,198.404938   C294.306152,187.422348 295.311035,176.856964 296.357330,166.295685   C296.833466,161.489594 297.668274,156.700531 297.823547,151.887070   C297.944824,148.129303 299.479034,147.126587 303.022552,147.154861   C320.018738,147.290421 337.016632,147.213684 354.013916,147.213455   C382.842621,147.213074 411.671326,147.213501 441.000061,147.213776  z"/>
<path fill="#D3D3D3" opacity="1.000000" stroke="none" d=" M387.085938,570.957642   C406.211884,559.953552 428.070831,573.353943 427.323944,598.762390   C426.683197,620.559265 408.741058,633.463928 387.625519,627.589905   C385.383179,626.966064 382.667847,627.249695 380.357819,627.839844   C376.450836,628.838135 373.253998,627.019409 373.061279,622.809937   C372.863434,618.489685 373.121368,614.150452 373.102722,609.819824   C373.016602,589.829529 372.856445,569.839355 372.854675,549.849182   C372.854431,547.074646 373.257690,544.198914 374.068481,541.552002   C375.020142,538.445312 377.824219,536.709717 380.697998,538.066895   C382.327515,538.836609 383.756439,541.786499 383.825867,543.804321   C384.150177,553.229187 383.969757,562.671448 383.969757,572.358459   C384.748199,572.012512 385.751343,571.566772 387.085938,570.957642  M415.787048,603.944946   C415.880371,603.455566 415.990723,602.968750 416.064575,602.476440   C417.566956,592.462463 414.426910,583.737244 407.622009,580.206726   C399.208679,575.841980 392.181305,579.690979 385.683472,584.765015   C384.368469,585.791809 383.321960,587.961487 383.255524,589.647827   C382.987671,596.447632 383.047455,603.267456 383.243774,610.072449   C383.283936,611.464600 384.062195,613.523010 385.130646,614.093262   C397.985168,620.954529 411.038055,617.753174 415.787048,603.944946  z"/>
<path fill="#D2D2D3" opacity="1.000000" stroke="none" d=" M458.706116,568.528320   C466.497467,566.587524 473.610657,567.446045 480.382141,570.906250   C485.456940,573.499390 485.797119,575.764954 485.007019,581.310181   C483.318970,593.158142 482.068420,605.122803 486.627441,616.743042   C487.416412,618.753967 488.703430,620.715942 488.884491,622.777466   C489.062622,624.805664 488.760040,628.028687 487.522888,628.742676   C485.901062,629.678589 482.977661,629.133667 480.949280,628.353699   C479.222717,627.689880 477.970673,625.791748 476.636780,625.774109   C469.421875,626.906250 462.201050,628.979858 454.993561,628.934448   C445.794617,628.876526 439.729950,623.369141 436.896790,614.432251   C430.530273,594.349976 439.837860,574.379456 458.706116,568.528320  M449.552094,590.257874   C448.698547,595.084778 447.231262,599.902039 447.154938,604.741211   C447.069611,610.152222 448.709320,615.507446 454.339233,617.938782   C459.956116,620.364380 465.361389,619.037781 470.416595,615.854919   C473.057129,614.192322 473.945099,612.219238 473.619568,608.849731   C472.872650,601.119019 472.488159,593.305603 472.696045,585.545593   C472.860962,579.389099 471.006958,577.093994 464.861908,578.233215   C458.020569,579.501465 453.342957,583.767517 449.552094,590.257874  z"/>
<path fill="#D2D2D3" opacity="1.000000" stroke="none" d=" M497.996368,586.103760   C498.350250,577.742798 502.744537,572.592468 509.777954,569.867188   C517.206787,566.988708 524.820679,564.537964 532.468384,562.290588   C537.904175,560.693237 540.619202,562.716736 541.598633,568.272827   C542.002869,570.565735 542.467407,572.852661 542.750916,575.161133   C543.187134,578.713440 542.799316,582.048340 538.567993,582.993225   C534.585876,583.882446 532.187378,582.069580 531.473511,578.026184   C531.362793,577.398865 531.019531,576.812622 530.571655,575.662903   C523.009460,578.134155 514.598083,578.493774 509.281708,587.146179   C513.219604,588.161194 516.636169,588.662781 519.741821,589.927612   C524.914612,592.034363 530.625549,593.738220 534.803711,597.191956   C546.081055,606.514038 542.349854,623.632751 528.475403,628.149719   C518.875916,631.275024 509.396606,630.307312 500.170929,626.630066   C498.243408,625.861694 496.365906,624.439880 495.025452,622.847595   C492.895294,620.317383 492.641266,617.254822 494.973969,614.654846   C497.344940,612.012085 500.118988,612.142700 503.002533,614.153259   C509.689819,618.815918 517.069458,618.795105 524.511230,616.727417   C529.902832,615.229309 531.171204,610.252563 526.998840,606.440430   C524.773804,604.407593 521.676880,603.127380 518.764771,602.098450   C515.019592,600.775391 510.997406,600.251770 507.215179,599.014954   C500.442139,596.800049 498.353241,593.791626 497.996368,586.103760  z"/>
<path fill="#D2D2D3" opacity="1.000000" stroke="none" d=" M599.120239,627.043091   C586.393616,619.321167 581.939941,607.491333 587.209290,592.327454   C589.606384,585.429321 593.580017,578.697998 598.248718,573.058411   C605.510498,564.286682 622.567139,564.448486 630.786804,572.415405   C633.378662,574.927551 634.181519,577.927917 631.914673,580.906555   C629.414551,584.191772 626.584045,583.137634 623.655029,581.041016   C615.229126,575.009705 607.993347,576.334473 602.681213,585.256470   C600.160522,589.490112 598.218811,594.178406 596.725769,598.886230   C594.827698,604.871033 596.001343,610.573364 600.980103,614.782593   C605.906189,618.947266 611.674866,620.097290 617.810364,617.797546   C620.599915,616.752014 623.220825,615.241211 625.880554,613.868469   C628.788696,612.367615 631.452148,612.424377 633.278809,615.382568   C635.177002,618.456543 634.218750,621.348511 631.467163,623.265747   C621.536133,630.185364 610.945374,632.505249 599.120239,627.043091  z"/>
<path fill="#D1D2D2" opacity="1.000000" stroke="none" d=" M558.044861,580.047974   C558.111816,577.753540 558.035156,575.911255 558.247620,574.102844   C558.648865,570.687683 560.461426,568.575928 564.112549,568.621765   C567.748535,568.667358 569.527527,570.766663 569.844360,574.223633   C569.965210,575.542114 569.890930,576.881042 569.865784,578.209961   C569.605164,591.995239 569.408142,605.782532 568.990540,619.563049   C568.929993,621.559570 568.352478,624.163330 567.009766,625.321045   C565.696228,626.453613 562.657776,626.941040 561.181213,626.170227   C559.507019,625.296265 557.786926,622.745239 557.715332,620.861450   C557.336914,610.907227 557.416748,600.933289 557.458130,590.966675   C557.472595,587.482178 557.830627,583.999084 558.044861,580.047974  z"/>
<path fill="#D0D1D2" opacity="1.000000" stroke="none" d=" M570.874512,544.038025   C573.730408,549.526428 572.461914,553.997620 567.945923,555.056946   C564.631165,555.834351 561.148254,555.323792 560.047546,551.855530   C559.327148,549.585571 559.635010,546.071777 561.000122,544.256470   C563.513489,540.914307 567.246155,541.124268 570.874512,544.038025  z"/>
<path fill="#496073" opacity="1.000000" stroke="none" d=" M415.664581,604.323120   C411.038055,617.753174 397.985168,620.954529 385.130646,614.093262   C384.062195,613.523010 383.283936,611.464600 383.243774,610.072449   C383.047455,603.267456 382.987671,596.447632 383.255524,589.647827   C383.321960,587.961487 384.368469,585.791809 385.683472,584.765015   C392.181305,579.690979 399.208679,575.841980 407.622009,580.206726   C414.426910,583.737244 417.566956,592.462463 416.064575,602.476440   C415.990723,602.968750 415.880371,603.455566 415.664581,604.323120  z"/>
<path fill="#496072" opacity="1.000000" stroke="none" d=" M449.727386,589.924561   C453.342957,583.767517 458.020569,579.501465 464.861908,578.233215   C471.006958,577.093994 472.860962,579.389099 472.696045,585.545593   C472.488159,593.305603 472.872650,601.119019 473.619568,608.849731   C473.945099,612.219238 473.057129,614.192322 470.416595,615.854919   C465.361389,619.037781 459.956116,620.364380 454.339233,617.938782   C448.709320,615.507446 447.069611,610.152222 447.154938,604.741211   C447.231262,599.902039 448.698547,595.084778 449.727386,589.924561  z"/>
</svg>